{"title":"Jamaica Inn BBC 2014","uid":10032287,"size":3175670571,"categoryP":"video","categoryS":"tv_shows","magnet":"?xt=urn:btih:d4a50c7baeeb5d946da096da3d2782c8660e1b07&amp;dn=Jamaica+Inn+BBC+2014&amp;tr=udp%3A%2F%2Ftracker.openbittorrent.com%3A80&amp;tr=udp%3A%2F%2Fopen.demonii.com%3A1337&amp;tr=udp%3A%2F%2Ftracker.coppersurfer.tk%3A6969&amp;tr=udp%3A%2F%2Fexodus.desync.com%3A6969","seeders":9,"leechers":1,"uploader":"RedBaron58","files":3,"time":1398353781,"description":"Jamaica Inn (BBC Mini-Series 2014) 3 part 1 hour episodes 720P x264 mp4 \n &lt;a href=&quot;\nhttp://www.imdb.com/title/tt3098842/&quot; rel=&quot;nofollow&quot; target=&quot;_NEW&quot;&gt;\nhttp://www.imdb.com/title/tt3098842/&lt;/a&gt;\n\n\nThank you for your kind comments and thumbs ups on my other torrents, your feedback is welcome.\n\n\nAbout the Series:\nAdaptation of Daphne du Maurier's 1821-set novel about a young woman who moves to live with her aunt \nat Jamaica Inn in Cornwall following her mother's death. \nWhen Mary arrives, she finds her aunt is no longer the vibrant beauty she remembers from her childhood, \nthanks to years of marriage to her bullying husband Joss. \nHe in turn is revealed to be a smuggler, whose gang operates along the entire Cornish coastline.\n\n\nI hope you enjoy.\n\n\nTechnical: (All 3 episodes encoded to same settings)\n\nGeneral\nComplete name                            : G:Jamaica Inn BBC 2014Jamaica Inn S01E01 720P x264 RB58.mp4\nFormat                                   : MPEG-4\nFormat profile                           : Base Media\nCodec ID                                 : isom\nFile size                                : 1 007 MiB\nDuration                                 : 58mn 36s\nOverall bit rate mode                    : Variable\nOverall bit rate                         : 2 402 Kbps\nWriting application                      : Lavf54.63.104\n\nVideo\nID                                       : 1\nFormat                                   : AVC\nFormat/Info                              : Advanced Video Codec\nFormat profile                           : &lt;a class=&quot;__cf_email__&quot; href=&quot;/cdn-cgi/l/email-protection&quot; data-cfemail=&quot;e0a8898788a0acd4ced1&quot;&gt;[email&amp;#160;protected]&lt;/a&gt;&lt;script cf-hash='f9e31' type=&quot;text/javascript&quot;&gt;\n/* &lt;![CDATA[ */!function(){try{var t=&quot;currentScript&quot;in document?document.currentScript:function(){for(var t=document.getElementsByTagName(&quot;script&quot;),e=t.length;e--;)if(t[e].getAttribute(&quot;cf-hash&quot;))return t[e]}();if(t&amp;&amp;t.previousSibling){var e,r,n,i,c=t.previousSibling,a=c.getAttribute(&quot;data-cfemail&quot;);if(a){for(e=&quot;&quot;,r=parseInt(a.substr(0,2),16),n=2;a.length-n;n+=2)i=parseInt(a.substr(n,2),16)^r,e+=String.fromCharCode(i);e=document.createTextNode(e),c.parentNode.replaceChild(e,c)}}}catch(u){}}();/* ]]&gt; */&lt;/script&gt;\nFormat settings, CABAC                   : Yes\nFormat settings, ReFrames                : 2 frames\nCodec ID                                 : avc1\nCodec ID/Info                            : Advanced Video Coding\nDuration                                 : 58mn 36s\nBit rate mode                            : Variable\nBit rate                                 : 2 303 Kbps\nMaximum bit rate                         : 3 500 Kbps\nWidth                                    : 1 280 pixels\nHeight                                   : 720 pixels\nDisplay aspect ratio                     : 16:9\nFrame rate mode                          : Constant\nFrame rate                               : 25.000 fps\nColor space                              : YUV\nChroma subsampling                       : 4:2:0\nBit depth                                : 8 bits\nScan type                                : Progressive\nBits/(Pixel*Frame)                       : 0.100\nStream size                              : 966 MiB (96%)\n\nAudio\nID                                       : 2\nFormat                                   : AAC\nFormat/Info                              : Advanced Audio Codec\nFormat profile                           : LC\nCodec ID                                 : 40\nDuration                                 : 58mn 36s\nBit rate mode                            : Constant\nBit rate                                 : 93.5 Kbps\nChannel(s)                               : 2 channels\nChannel positions                        : Front: L R\nSampling rate                            : 48.0 KHz\nCompression mode                         : Lossy\nStream size                              : 39.2 MiB (4%)","torrent":{"xt":"urn:btih:d4a50c7baeeb5d946da096da3d2782c8660e1b07","amp;dn":"Jamaica+Inn+BBC+2014","amp;tr":["udp%3A%2F%2Ftracker.openbittorrent.com%3A80","udp%3A%2F%2Fopen.demonii.com%3A1337","udp%3A%2F%2Ftracker.coppersurfer.tk%3A6969","udp%3A%2F%2Fexodus.desync.com%3A6969"],"infoHash":"d4a50c7baeeb5d946da096da3d2782c8660e1b07","infoHashBuffer":{"type":"Buffer","data":[212,165,12,123,174,235,93,148,109,160,150,218,61,39,130,200,102,14,27,7]},"announce":[],"urlList":[]}}